<svg width="490" height="60" viewBox="0 0 490 60" fill="none" xmlns="http://www.w3.org/2000/svg">
<path d="M20.2888 59.5332C12.4726 59.5332 5.87599 58.098 0.498905 55.2276L4.65645 42.3936C10.3661 44.436 15.4661 45.4572 19.9562 45.4572C22.3953 45.4572 24.1692 45.1812 25.2779 44.6292C26.442 44.022 27.024 43.1388 27.024 41.9796C27.024 41.2068 26.7191 40.5444 26.1094 39.9924C25.4996 39.3852 24.28 38.7228 22.4507 38.0052C20.6214 37.2876 17.8774 36.4044 14.2188 35.3556C9.72865 34.0308 6.23631 31.878 3.74179 28.8972C1.24726 25.8612 0 22.3836 0 18.4644C0 12.3924 1.99562 7.8108 5.98686 4.7196C10.0335 1.5732 15.4661 0 22.2844 0C25.8322 0 29.3245 0.3864 32.7614 1.1592C36.1983 1.8768 39.2472 2.9532 41.908 4.3884L37.4179 16.8912C34.3136 15.8424 31.5973 15.0972 29.2691 14.6556C26.9963 14.1588 24.7789 13.9104 22.617 13.9104C18.9584 13.9104 17.1291 14.904 17.1291 16.8912C17.1291 17.8848 17.7111 18.7404 18.8752 19.458C20.0948 20.1204 22.5616 20.976 26.2757 22.0248C32.0962 23.5704 36.5032 25.944 39.4966 29.1456C42.4901 32.292 43.9868 36.0732 43.9868 40.4892C43.9868 46.6164 41.9912 51.336 37.9999 54.648C34.0087 57.9048 28.105 59.5332 20.2888 59.5332Z" fill="url(#paint0_linear_3_20)"/>
<path d="M51.7861 1.242H69.0814L83.3834 28.8972L97.3527 1.242H114.648V58.2084H97.3527V27.8208L86.7926 47.6928H79.7247L69.0814 27.8208V58.2084H51.7861V1.242Z" fill="url(#paint1_linear_3_20)"/>
<path d="M136.327 1.242H161.605L178.152 58.2084H158.612L156.45 47.2788H141.649L139.237 58.2084H120.528L136.327 1.242ZM154.454 37.0944L149.049 12.1716L143.395 37.0944H154.454Z" fill="url(#paint2_linear_3_20)"/>
<path d="M226.98 59.5332C216.558 59.5332 210.183 54.7308 207.855 45.126L205.776 36.5976H201.868V58.2084H183.658V1.242H208.853C213.62 1.242 217.805 1.9596 221.409 3.3948C225.067 4.7748 227.894 6.7344 229.89 9.2736C231.886 11.8128 232.883 14.7384 232.883 18.0504C232.883 21.7488 231.969 24.8676 230.139 27.4068C228.366 29.8908 225.594 31.9332 221.824 33.534C222.212 35.6316 222.656 37.536 223.155 39.2472C223.82 41.3448 224.735 42.8076 225.899 43.6356C227.063 44.4636 228.754 44.8776 230.971 44.8776C231.747 44.8776 232.967 44.7672 234.63 44.5464V58.0428C232.024 59.0364 229.474 59.5332 226.98 59.5332ZM205.028 25.0056C209.13 25.0056 212.013 24.564 213.676 23.6808C215.394 22.7424 216.253 21.1692 216.253 18.9612C216.253 17.0844 215.56 15.732 214.174 14.904C212.789 14.0208 210.599 13.5792 207.606 13.5792H201.868V25.0056H205.028Z" fill="url(#paint3_linear_3_20)"/>
<path d="M249.803 13.8276H237.912V1.242H281.067V13.8276H269.177V58.2084H249.803V13.8276Z" fill="url(#paint4_linear_3_20)"/>
<path d="M283.657 1.242H302.449L311.263 36.7632L320.077 1.242H339.701L321.824 58.2084H300.62L283.657 1.242Z" fill="url(#paint5_linear_3_20)"/>
<path d="M410.212 1.242H428.172V45.6228H448.045V58.2084H410.212V1.242Z" fill="url(#paint6_linear_3_20)"/>
<path d="M458.735 13.8276H446.845V1.242H490V13.8276H478.109V58.2084H458.735V13.8276Z" fill="url(#paint7_linear_3_20)"/>
<path d="M357.348 55.5323C361.913 58.024 367.13 59.2698 373 59.2698C375.431 59.2698 377.527 59.1286 379.568 58.7513C381.497 58.3947 382.268 56.1723 381.196 54.5297L375.54 45.8607C374.995 45.0253 373.998 44.4825 373 44.4825C369.522 44.4825 366.696 43.1554 364.522 40.5013C362.348 37.8472 361.261 34.3535 361.261 30.0202C361.261 28.6508 361.372 27.3553 361.595 26.1337C361.746 25.3056 361.619 24.4406 361.129 23.7562C359.954 22.1155 358.344 20.0651 358.117 19.6875C357.766 19.1016 357.883 18.75 358.703 18.6328L366.32 17.8125C367.141 17.8125 367.492 17.2266 367.141 16.5234L361.235 5.76074C360.471 4.36834 358.742 3.82849 357.348 4.58937C352.837 7.02683 349.304 10.4664 346.75 14.908C344.25 19.3496 343 24.4141 343 30.1015C343 35.7347 344.25 40.7721 346.75 45.2137C349.304 49.6012 352.837 53.0407 357.348 55.5323Z" fill="url(#paint8_linear_3_20)"/>
<path d="M399.168 14.908C396.668 10.4664 393.136 7.02683 388.571 4.58937C385.757 3.03545 381.972 2.07126 378.315 1.53333C376.875 1.3215 375.779 2.73152 376.264 4.10371L382.363 21.3358C382.525 21.7926 382.81 22.1924 383.095 22.5846C384.349 24.3115 384.739 27.4549 384.739 30.0202C384.739 33.3467 384.437 35.7573 383.232 37.966C382.81 38.7395 382.615 39.6334 382.829 40.4882L386.346 54.5568C386.598 55.5635 387.66 56.0295 388.571 55.5323C393.136 53.0407 396.668 49.6012 399.168 45.2137C401.723 40.7721 403 35.7347 403 30.1015C403 24.3599 401.723 19.2954 399.168 14.908Z" fill="url(#paint9_linear_3_20)"/>
<path d="M373.437 0H359.943C359.508 0 359.235 0.468223 359.45 0.845254L368.941 17.4745C369.145 17.8312 368.912 18.2785 368.502 18.3173L359.908 19.1311C359.482 19.1715 359.252 19.6499 359.488 20.006L385.827 59.7433C386.18 60.2767 387.011 59.9073 386.849 59.2887L378.464 27.2525C378.376 26.9164 378.61 26.5814 378.956 26.547L382.529 26.1917C382.896 26.1552 383.131 25.7841 383.006 25.4377L373.971 0.374286C373.89 0.149744 373.676 0 373.437 0Z" fill="url(#paint10_linear_3_20)"/>
<defs>
<linearGradient id="paint0_linear_3_20" x1="1193.07" y1="-0.591409" x2="-858.604" y2="2008.75" gradientUnits="userSpaceOnUse">
<stop stop-color="#171DAC"/>
<stop offset="1" stop-color="#1F1367"/>
</linearGradient>
<linearGradient id="paint1_linear_3_20" x1="1193.07" y1="-0.591409" x2="-858.604" y2="2008.75" gradientUnits="userSpaceOnUse">
<stop stop-color="#171DAC"/>
<stop offset="1" stop-color="#1F1367"/>
</linearGradient>
<linearGradient id="paint2_linear_3_20" x1="1193.07" y1="-0.591409" x2="-858.604" y2="2008.75" gradientUnits="userSpaceOnUse">
<stop stop-color="#171DAC"/>
<stop offset="1" stop-color="#1F1367"/>
</linearGradient>
<linearGradient id="paint3_linear_3_20" x1="1193.07" y1="-0.591409" x2="-858.604" y2="2008.75" gradientUnits="userSpaceOnUse">
<stop stop-color="#171DAC"/>
<stop offset="1" stop-color="#1F1367"/>
</linearGradient>
<linearGradient id="paint4_linear_3_20" x1="1193.07" y1="-0.591409" x2="-858.604" y2="2008.75" gradientUnits="userSpaceOnUse">
<stop stop-color="#171DAC"/>
<stop offset="1" stop-color="#1F1367"/>
</linearGradient>
<linearGradient id="paint5_linear_3_20" x1="1193.07" y1="-0.591409" x2="-858.604" y2="2008.75" gradientUnits="userSpaceOnUse">
<stop stop-color="#171DAC"/>
<stop offset="1" stop-color="#1F1367"/>
</linearGradient>
<linearGradient id="paint6_linear_3_20" x1="1193.07" y1="-0.591409" x2="-858.604" y2="2008.75" gradientUnits="userSpaceOnUse">
<stop stop-color="#171DAC"/>
<stop offset="1" stop-color="#1F1367"/>
</linearGradient>
<linearGradient id="paint7_linear_3_20" x1="1193.07" y1="-0.591409" x2="-858.604" y2="2008.75" gradientUnits="userSpaceOnUse">
<stop stop-color="#171DAC"/>
<stop offset="1" stop-color="#1F1367"/>
</linearGradient>
<linearGradient id="paint8_linear_3_20" x1="489.091" y1="0.594724" x2="4.22188" y2="60.1778" gradientUnits="userSpaceOnUse">
<stop stop-color="#171DAC"/>
<stop offset="1" stop-color="#1F1367"/>
</linearGradient>
<linearGradient id="paint9_linear_3_20" x1="489.091" y1="0.594724" x2="4.22188" y2="60.1778" gradientUnits="userSpaceOnUse">
<stop stop-color="#171DAC"/>
<stop offset="1" stop-color="#1F1367"/>
</linearGradient>
<linearGradient id="paint10_linear_3_20" x1="353.516" y1="21.6844" x2="387.19" y2="12.2223" gradientUnits="userSpaceOnUse">
<stop stop-color="#FFB300"/>
<stop offset="1" stop-color="#FFC529"/>
</linearGradient>
</defs>
</svg>
