<svg width="256" height="256" viewBox="0 0 256 256" fill="none" xmlns="http://www.w3.org/2000/svg">
<path d="M61.2173 236.938C80.6955 247.569 102.956 252.884 128 252.884C143.261 252.884 155.428 251.581 168.311 247.681C170.188 247.113 170.955 244.899 169.884 243.256L136.086 191.457C135.428 190.448 134.23 189.972 133.026 190.014C131.439 190.07 130.291 189.792 128 189.792C113.159 189.792 101.101 184.13 91.8261 172.806C82.5507 161.481 77.913 146.575 77.913 128.086C77.913 120.639 78.6845 113.704 80.2276 107.282C80.4243 106.463 80.291 105.601 79.8211 104.902C74.9887 97.7224 65.6397 85.8996 64.5 84C63 81.5 63.5 80 67 79.5L99.5 76C103 76 104.5 73.5 103 70.5L73.3604 16.4795C72.5964 15.0871 70.8851 14.539 69.47 15.2601C66.5782 16.734 62.5982 18.8276 61.2173 19.5813C41.9709 29.9811 26.8984 44.6565 15.9999 63.6073C5.33323 82.5581 0 104.167 0 128.433C0 152.468 5.33323 173.961 15.9999 192.912C26.8984 211.632 41.9709 226.307 61.2173 236.938Z" fill="url(#paint0_linear_3_15)"/>
<path d="M239.652 63.6073C228.985 44.6565 213.913 29.9811 194.435 19.5813C179.814 11.5052 159.039 7.1626 140.594 5.29277C139.146 5.14596 138.052 6.55964 138.538 7.93183L168.754 93.3045C168.916 93.7614 169.189 94.1675 169.527 94.515C176.105 101.281 178.087 116.15 178.087 128.086C178.087 144.244 176.419 155.337 169.295 165.86C168.801 166.589 168.623 167.493 168.837 168.348L186.135 237.542C186.587 239.348 188.564 240.318 190.183 239.4C191.487 238.661 192.657 237.908 194.435 236.938C213.913 226.307 228.985 211.632 239.652 192.912C250.551 173.961 256 152.468 256 128.433C256 103.936 250.551 82.327 239.652 63.6073Z" fill="url(#paint1_linear_3_15)"/>
<path d="M129.863 0H72.2898C70.4331 0 69.2676 1.99775 70.1858 3.60642L110.683 74.5581C111.552 76.0798 110.557 77.9881 108.808 78.1537L72.1401 81.6262C70.3218 81.7984 69.3425 83.8396 70.3495 85.3587L182.727 254.905C184.235 257.181 187.78 255.605 187.089 252.965L151.312 116.277C150.936 114.843 151.934 113.414 153.414 113.267L168.656 111.751C170.224 111.595 171.227 110.012 170.694 108.534L132.141 1.59695C131.796 0.638906 130.884 0 129.863 0Z" fill="url(#paint2_linear_3_15)"/>
<defs>
<linearGradient id="paint0_linear_3_15" x1="623.32" y1="2.53749" x2="-1445.45" y2="256.759" gradientUnits="userSpaceOnUse">
<stop stop-color="#171DAC"/>
<stop offset="1" stop-color="#1F1367"/>
</linearGradient>
<linearGradient id="paint1_linear_3_15" x1="623.32" y1="2.53749" x2="-1445.45" y2="256.759" gradientUnits="userSpaceOnUse">
<stop stop-color="#171DAC"/>
<stop offset="1" stop-color="#1F1367"/>
</linearGradient>
<linearGradient id="paint2_linear_3_15" x1="44.8667" y1="92.5199" x2="188.542" y2="52.1485" gradientUnits="userSpaceOnUse">
<stop stop-color="#FFB300"/>
<stop offset="1" stop-color="#FFC529"/>
</linearGradient>
</defs>
</svg>
